<?xml version="1.0" encoding="utf-8"?>
<!-- Generator: Adobe Illustrator 26.0.2, SVG Export Plug-In . SVG Version: 6.00 Build 0)  -->
<svg version="1.1" id="svg_1" xmlns="http://www.w3.org/2000/svg" xmlns:xlink="http://www.w3.org/1999/xlink" x="0px" y="0px"
	 viewBox="0 0 599 449.2" style="enable-background:new 0 0 599 449.2;" xml:space="preserve">
<style type="text/css">
	.st0{fill:none;}
	.st1{fill:#36393F;}
	.st2{fill:url(#svg_13_00000152974357659929076350000006590458657916497038_);}
	.st3{fill:url(#svg_14_00000052104958548281294370000000957796002446089650_);}
	.st4{fill:url(#svg_15_00000136401869387508879840000002182964129371437213_);}
</style>
<g>
	<g id="shape_JZfIU9uh3q" transform="translate(309.224 109.278) scale(1 1)">
		<g id="svg_7">
			<rect id="svg_8" x="-100" y="0" class="st0" width="205.7" height="205.7"/>
			<g id="svg_9">
				<g id="svg_10">
					<path id="svg_11" class="st1" d="M55.5,195.7H-49.8c-22.1,0-40.2-18.1-40.2-40.2V50.2C-90,28.1-71.9,10-49.8,10H55.5
						c22.1,0,40.2,18.1,40.2,40.2v105.3C95.7,177.6,77.6,195.7,55.5,195.7L55.5,195.7z"/>
				</g>
				<g id="svg_12">
					
						<linearGradient id="svg_13_00000078728296014416170170000014246351893609360799_" gradientUnits="userSpaceOnUse" x1="-2885.415" y1="637.202" x2="-2885.0544" y2="638.2997" gradientTransform="matrix(90.3553 0 0 -51.4087 260701.6562 32922.1016)">
						<stop  offset="0" style="stop-color:#AFB0CC"/>
						<stop  offset="1" style="stop-color:#7F81AB"/>
					</linearGradient>
					<path id="svg_13" style="fill:url(#svg_13_00000078728296014416170170000014246351893609360799_);" d="M48.5,134.7
						c0,10.8-8.8,19.6-19.6,19.6c-3.5,0-6.9-0.9-9.7-2.6l0,0l-23-13.3c-0.2,0.7-0.3,1.3-0.5,1.9l0,0c-2.4,8-9.9,13.9-18.7,13.9
						s-16.3-5.8-18.7-13.9l0,0c0.6-2.1,1.6-4,2.8-5.7c1.2-1.6,2.5-3.1,4.1-4.2l0,0c2.1-1.3,8.6-4.9,8.6-4.9l22.8-13.1l16.4-9.5
						L37.4,117l0.3,0.2h0.1l0.9,0.5l0,0C44.5,121.2,48.5,127.4,48.5,134.7L48.5,134.7z"/>
					
						<linearGradient id="svg_14_00000096027955260514518060000000244678880144321943_" gradientUnits="userSpaceOnUse" x1="-2856.5737" y1="631.0292" x2="-2855.9873" y2="632.0605" gradientTransform="matrix(38.8376 0 0 -38.2555 110904.3047 24232.6777)">
						<stop  offset="0" style="stop-color:#AFB0CC"/>
						<stop  offset="1" style="stop-color:#7F81AB"/>
					</linearGradient>
					<path id="svg_14" style="fill:url(#svg_14_00000096027955260514518060000000244678880144321943_);" d="M-3.9,67.3l-6.5,3.7
						l-22.1,12.8c-0.3,0.2-0.6,0.3-0.8,0.5l-2.7,1.6l-6.7,3.9V71.1c0-10.8,8.8-19.6,19.6-19.6C-13.6,51.5-5.6,58.3-3.9,67.3z"/>
					
						<linearGradient id="svg_15_00000020356868060644464400000017977218900628993215_" gradientUnits="userSpaceOnUse" x1="-2885.8606" y1="645.068" x2="-2885.2302" y2="646.1882" gradientTransform="matrix(91.2163 0 0 -88.8887 263204.3438 57484.6602)">
						<stop  offset="0.1577" style="stop-color:#7F8185"/>
						<stop  offset="0.7459" style="stop-color:#AFB0CC"/>
					</linearGradient>
					<path id="svg_15" style="fill:url(#svg_15_00000020356868060644464400000017977218900628993215_);" d="M48.5,71.1
						c0,7.2-3.9,13.5-9.8,16.9l-1.3,0.7c0,0,0,0-0.1,0l-24.5,14.1l-16.4,9.5l-22.8,13.1l-8.6,5c-1.6,1.2-3,2.6-4.1,4.2
						c-1.3,1.7-2.2,3.6-2.8,5.7c-0.5-1.7-0.8-3.5-0.9-5.4V89.7l6.7-3.9l2.7-1.6c0.3-0.2,0.5-0.3,0.8-0.5l22.1-12.8l6.5-3.7l23-13.3
						l0,0c2.9-1.7,6.2-2.6,9.7-2.6C39.7,51.5,48.5,60.2,48.5,71.1L48.5,71.1z"/>
				</g>
			</g>
		</g>
	</g>
</g>
</svg>
